<?xml version="1.0" encoding="UTF-8" standalone="no"?>
<svg
   xmlns:dc="http://purl.org/dc/elements/1.1/"
   xmlns:cc="http://creativecommons.org/ns#"
   xmlns:rdf="http://www.w3.org/1999/02/22-rdf-syntax-ns#"
   xmlns:svg="http://www.w3.org/2000/svg"
   xmlns="http://www.w3.org/2000/svg"
   viewBox="0 0 341.32001 242.50267"
   height="242.50267"
   width="341.32001"
   xml:space="preserve"
   id="svg2"
   version="1.1"><metadata
     id="metadata8"><rdf:RDF><cc:Work
         rdf:about=""><dc:format>image/svg+xml</dc:format><dc:type
           rdf:resource="http://purl.org/dc/dcmitype/StillImage" /></cc:Work></rdf:RDF></metadata><defs
     id="defs6"><clipPath
       id="clipPath22"
       clipPathUnits="userSpaceOnUse"><path
         id="path20"
         d="M 0,181.877 H 255.99 V 0 H 0 Z" /></clipPath><clipPath
       id="clipPath46"
       clipPathUnits="userSpaceOnUse"><path
         id="path44"
         d="M 0,181.877 H 255.99 V 0 H 0 Z" /></clipPath><clipPath
       id="clipPath72"
       clipPathUnits="userSpaceOnUse"><path
         id="path70"
         d="M 29.422,28.972 H 241.463 V 179.625 H 29.422 Z" /></clipPath><clipPath
       id="clipPath80"
       clipPathUnits="userSpaceOnUse"><path
         id="path78"
         d="M 53.6636,141.769 H 68.268 V 28.972 H 53.6636 Z" /></clipPath><clipPath
       id="clipPath94"
       clipPathUnits="userSpaceOnUse"><path
         id="path92"
         d="M 29.422,28.972 H 241.463 V 179.625 H 29.422 Z" /></clipPath><clipPath
       id="clipPath102"
       clipPathUnits="userSpaceOnUse"><path
         id="path100"
         d="M 94.5528,147.659 H 109.156 V 28.972 H 94.5528 Z" /></clipPath><clipPath
       id="clipPath116"
       clipPathUnits="userSpaceOnUse"><path
         id="path114"
         d="M 29.422,28.972 H 241.463 V 179.625 H 29.422 Z" /></clipPath><clipPath
       id="clipPath124"
       clipPathUnits="userSpaceOnUse"><path
         id="path122"
         d="m 135.442,139.051 h 14.604 V 28.972 h -14.604 z" /></clipPath><clipPath
       id="clipPath138"
       clipPathUnits="userSpaceOnUse"><path
         id="path136"
         d="M 29.422,28.972 H 241.463 V 179.625 H 29.422 Z" /></clipPath><clipPath
       id="clipPath146"
       clipPathUnits="userSpaceOnUse"><path
         id="path144"
         d="m 176.331,142.675 h 14.605 V 28.972 h -14.605 z" /></clipPath><clipPath
       id="clipPath160"
       clipPathUnits="userSpaceOnUse"><path
         id="path158"
         d="M 29.422,28.972 H 241.463 V 179.625 H 29.422 Z" /></clipPath><clipPath
       id="clipPath168"
       clipPathUnits="userSpaceOnUse"><path
         id="path166"
         d="m 217.22,130.897 h 14.604 V 28.972 H 217.22 Z" /></clipPath><clipPath
       id="clipPath302"
       clipPathUnits="userSpaceOnUse"><path
         id="path300"
         d="M 29.422,28.972 H 241.463 V 179.625 H 29.422 Z" /></clipPath><clipPath
       id="clipPath344"
       clipPathUnits="userSpaceOnUse"><path
         id="path342"
         d="M 0,181.877 H 255.99 V 0 H 0 Z" /></clipPath><clipPath
       id="clipPath372"
       clipPathUnits="userSpaceOnUse"><path
         id="path370"
         d="M 0,181.877 H 255.99 V 0 H 0 Z" /></clipPath><clipPath
       id="clipPath380"
       clipPathUnits="userSpaceOnUse"><path
         id="path378"
         d="m 201.626,167.013 h 24.803 v -4.961 h -24.803 z" /></clipPath></defs><g
     transform="matrix(1.3333333,0,0,-1.3333333,0,242.50267)"
     id="g10"><text
       id="text14"
       style="font-variant:normal;font-weight:normal;font-stretch:condensed;font-size:8px;font-family:'DejaVu Sans Condensed';-inkscape-font-specification:DejaVuSansCondensed;writing-mode:lr-tb;fill:#000000;fill-opacity:1;fill-rule:nonzero;stroke:none"
       transform="matrix(1,0,0,-1,34.7998,16.8945)"><tspan
         id="tspan12"
         y="0"
         x="0 4.5679998 8.8240004 13.384 16.208 20.768 25.200001 28.024 30.024 45.023998 50.408001 54.816002 57.639999 62.200001 65.160004 69.568001 88.872002 95.080002 97.080002 101.336 105.768 133.528 138.464 140.464 145.024 172.01601 177.39999 181.8 186.36">SyntheticNaturalMixedBlurNone</tspan></text>
<g
       id="g16"><g
         clip-path="url(#clipPath22)"
         id="g18"><text
           id="text26"
           style="font-variant:normal;font-weight:normal;font-stretch:condensed;font-size:10px;font-family:'DejaVu Sans Condensed';-inkscape-font-specification:DejaVuSansCondensed;writing-mode:lr-tb;fill:#000000;fill-opacity:1;fill-rule:nonzero;stroke:none"
           transform="matrix(1,0,0,-1,90.4614,4.6289)"><tspan
             id="tspan24"
             y="0"
             x="0 6.25 11.79 14.95 20.49 24.190001 29.73 35.43 40.380001 45.919998 48.779999 51.43 60.189999 65.699997 71.410004 76.949997">Reference Images</tspan></text>
</g></g><text
       id="text38"
       style="font-variant:normal;font-weight:normal;font-stretch:condensed;font-size:8px;font-family:'DejaVu Sans Condensed';-inkscape-font-specification:DejaVuSansCondensed;writing-mode:lr-tb;fill:#000000;fill-opacity:1;fill-rule:nonzero;stroke:none"
       transform="matrix(1,0,0,-1,20.3633,25.9336)"><tspan
         id="tspan28"
         y="0"
         x="0">0</tspan><tspan
         id="tspan30"
         y="-32.616001"
         x="-7.6399999 -3.0639999 -0.77600002">0.2</tspan><tspan
         id="tspan32"
         y="-65.232002"
         x="-7.6399999 -3.0639999 -0.77600002">0.4</tspan><tspan
         id="tspan34"
         y="-97.848"
         x="-7.6399999 -3.0639999 -0.77600002">0.6</tspan><tspan
         id="tspan36"
         y="-130.464"
         x="-7.6399999 -3.0639999 -0.77600002">0.8</tspan></text>
<g
       id="g40"><g
         clip-path="url(#clipPath46)"
         id="g42"><text
           id="text50"
           style="font-variant:normal;font-weight:normal;font-stretch:condensed;font-size:10px;font-family:'DejaVu Sans Condensed';-inkscape-font-specification:DejaVuSansCondensed;writing-mode:lr-tb;fill:#000000;fill-opacity:1;fill-rule:nonzero;stroke:none"
           transform="matrix(0,1,1,0,8.6445,53.832)"><tspan
             id="tspan48"
             y="0"
             x="0 5.4200001 9.1199999 14.62 20.33 25.83 29.530001 33.060001 35.560001 41.060001 46.759998 49.619999 55.900002 61.400002 65.099998 68.800003 74.339996 79.290001">Proportion Correct</tspan></text>
</g></g><text
       id="text54"
       style="font-variant:normal;font-weight:normal;font-stretch:condensed;font-size:10px;font-family:'DejaVu Sans Condensed';-inkscape-font-specification:DejaVuSansCondensed;writing-mode:lr-tb;fill:#000000;fill-opacity:1;fill-rule:nonzero;stroke:none"
       transform="matrix(1,0,0,-1,102.8013,167.5054)"><tspan
         id="tspan52"
         y="0"
         x="0 5.0700002 10.61 14.31 17.469999 22.969999 26.5 35.259998 40.77 46.470001 51.419998">Performance</tspan></text>
<path
       id="path56"
       style="fill:#47789e;fill-opacity:1;fill-rule:nonzero;stroke:none"
       d="M 39.06,28.972 H 53.663 V 139.324 H 39.06 Z" /><path
       id="path58"
       style="fill:#ffac74;fill-opacity:1;fill-rule:nonzero;stroke:none"
       d="M 79.95,28.972 H 94.553 V 137.329 H 79.95 Z" /><path
       id="path60"
       style="fill:#30881f;fill-opacity:1;fill-rule:nonzero;stroke:none"
       d="m 120.839,28.972 h 14.603 v 107.452 h -14.603 z" /><path
       id="path62"
       style="fill:#72529f;fill-opacity:1;fill-rule:nonzero;stroke:none"
       d="m 161.728,28.972 h 14.603 v 105.277 h -14.603 z" /><path
       id="path64"
       style="fill:#aca7a6;fill-opacity:1;fill-rule:nonzero;stroke:none"
       d="m 202.618,28.972 h 14.602 v 97.485 h -14.602 z" /><g
       id="g66"><g
         clip-path="url(#clipPath72)"
         id="g68"><g
           id="g74"><g
             id="g76" /><g
             id="g86"><g
               style="opacity:0.5"
               id="g84"
               clip-path="url(#clipPath80)"><path
                 id="path82"
                 style="fill:#47789e;fill-opacity:1;fill-rule:nonzero;stroke:none"
                 d="M 53.664,28.972 H 68.267 V 141.769 H 53.664 Z" /></g></g></g></g></g><g
       id="g88"><g
         clip-path="url(#clipPath94)"
         id="g90"><g
           id="g96"><g
             id="g98" /><g
             id="g108"><g
               style="opacity:0.5"
               id="g106"
               clip-path="url(#clipPath102)"><path
                 id="path104"
                 style="fill:#ffac74;fill-opacity:1;fill-rule:nonzero;stroke:none"
                 d="m 94.553,28.972 h 14.603 V 147.659 H 94.553 Z" /></g></g></g></g></g><g
       id="g110"><g
         clip-path="url(#clipPath116)"
         id="g112"><g
           id="g118"><g
             id="g120" /><g
             id="g130"><g
               style="opacity:0.5"
               id="g128"
               clip-path="url(#clipPath124)"><path
                 id="path126"
                 style="fill:#30881f;fill-opacity:1;fill-rule:nonzero;stroke:none"
                 d="m 135.442,28.972 h 14.603 v 110.079 h -14.603 z" /></g></g></g></g></g><g
       id="g132"><g
         clip-path="url(#clipPath138)"
         id="g134"><g
           id="g140"><g
             id="g142" /><g
             id="g152"><g
               style="opacity:0.5"
               id="g150"
               clip-path="url(#clipPath146)"><path
                 id="path148"
                 style="fill:#72529f;fill-opacity:1;fill-rule:nonzero;stroke:none"
                 d="m 176.332,28.972 h 14.603 v 113.703 h -14.603 z" /></g></g></g></g></g><g
       id="g154"><g
         clip-path="url(#clipPath160)"
         id="g156"><g
           id="g162"><g
             id="g164" /><g
             id="g174"><g
               style="opacity:0.5"
               id="g172"
               clip-path="url(#clipPath168)"><path
                 id="path170"
                 style="fill:#aca7a6;fill-opacity:1;fill-rule:nonzero;stroke:none"
                 d="m 217.221,28.972 h 14.602 v 101.925 h -14.602 z" /></g></g></g></g></g><g
       transform="translate(53.6634,25.4718)"
       id="g176"><path
         id="path178"
         style="fill:#000000;fill-opacity:1;fill-rule:nonzero;stroke:none"
         d="M 0,0 V 3.5 Z" /></g><g
       transform="translate(53.6636,28.9717)"
       id="g180"><path
         id="path182"
         style="fill:none;stroke:#000000;stroke-width:0.80000001;stroke-linecap:butt;stroke-linejoin:round;stroke-miterlimit:10;stroke-dasharray:none;stroke-opacity:1"
         d="M 0,0 V -3.5" /></g><g
       transform="translate(94.5531,25.4718)"
       id="g184"><path
         id="path186"
         style="fill:#000000;fill-opacity:1;fill-rule:nonzero;stroke:none"
         d="M 0,0 V 3.5 Z" /></g><g
       transform="translate(94.5527,28.9717)"
       id="g188"><path
         id="path190"
         style="fill:none;stroke:#000000;stroke-width:0.80000001;stroke-linecap:butt;stroke-linejoin:round;stroke-miterlimit:10;stroke-dasharray:none;stroke-opacity:1"
         d="M 0,0 V -3.5" /></g><g
       transform="translate(135.4419,25.4718)"
       id="g192"><path
         id="path194"
         style="fill:#000000;fill-opacity:1;fill-rule:nonzero;stroke:none"
         d="M 0,0 V 3.5 Z" /></g><g
       transform="translate(135.4419,28.9717)"
       id="g196"><path
         id="path198"
         style="fill:none;stroke:#000000;stroke-width:0.80000001;stroke-linecap:butt;stroke-linejoin:round;stroke-miterlimit:10;stroke-dasharray:none;stroke-opacity:1"
         d="M 0,0 V -3.5" /></g><g
       transform="translate(176.3316,25.4718)"
       id="g200"><path
         id="path202"
         style="fill:#000000;fill-opacity:1;fill-rule:nonzero;stroke:none"
         d="M 0,0 V 3.5 Z" /></g><g
       transform="translate(176.3315,28.9717)"
       id="g204"><path
         id="path206"
         style="fill:none;stroke:#000000;stroke-width:0.80000001;stroke-linecap:butt;stroke-linejoin:round;stroke-miterlimit:10;stroke-dasharray:none;stroke-opacity:1"
         d="M 0,0 V -3.5" /></g><g
       transform="translate(217.2204,25.4718)"
       id="g208"><path
         id="path210"
         style="fill:#000000;fill-opacity:1;fill-rule:nonzero;stroke:none"
         d="M 0,0 V 3.5 Z" /></g><g
       transform="translate(217.2202,28.9717)"
       id="g212"><path
         id="path214"
         style="fill:none;stroke:#000000;stroke-width:0.80000001;stroke-linecap:butt;stroke-linejoin:round;stroke-miterlimit:10;stroke-dasharray:none;stroke-opacity:1"
         d="M 0,0 V -3.5" /></g><g
       transform="translate(25.9218,28.9719)"
       id="g216"><path
         id="path218"
         style="fill:#000000;fill-opacity:1;fill-rule:nonzero;stroke:none"
         d="M 0,0 H 3.5 Z" /></g><g
       transform="translate(29.4219,28.9717)"
       id="g220"><path
         id="path222"
         style="fill:none;stroke:#000000;stroke-width:0.80000001;stroke-linecap:butt;stroke-linejoin:round;stroke-miterlimit:10;stroke-dasharray:none;stroke-opacity:1"
         d="M 0,0 H -3.5" /></g><g
       transform="translate(25.9218,61.5879)"
       id="g224"><path
         id="path226"
         style="fill:#000000;fill-opacity:1;fill-rule:nonzero;stroke:none"
         d="M 0,0 H 3.5 Z" /></g><g
       transform="translate(29.4219,61.5879)"
       id="g228"><path
         id="path230"
         style="fill:none;stroke:#000000;stroke-width:0.80000001;stroke-linecap:butt;stroke-linejoin:round;stroke-miterlimit:10;stroke-dasharray:none;stroke-opacity:1"
         d="M 0,0 H -3.5" /></g><g
       transform="translate(25.9218,94.2039)"
       id="g232"><path
         id="path234"
         style="fill:#000000;fill-opacity:1;fill-rule:nonzero;stroke:none"
         d="M 0,0 H 3.5 Z" /></g><g
       transform="translate(29.4219,94.2041)"
       id="g236"><path
         id="path238"
         style="fill:none;stroke:#000000;stroke-width:0.80000001;stroke-linecap:butt;stroke-linejoin:round;stroke-miterlimit:10;stroke-dasharray:none;stroke-opacity:1"
         d="M 0,0 H -3.5" /></g><g
       transform="translate(25.9218,126.8199)"
       id="g240"><path
         id="path242"
         style="fill:#000000;fill-opacity:1;fill-rule:nonzero;stroke:none"
         d="M 0,0 H 3.5 Z" /></g><g
       transform="translate(29.4219,126.8198)"
       id="g244"><path
         id="path246"
         style="fill:none;stroke:#000000;stroke-width:0.80000001;stroke-linecap:butt;stroke-linejoin:round;stroke-miterlimit:10;stroke-dasharray:none;stroke-opacity:1"
         d="M 0,0 H -3.5" /></g><g
       transform="translate(25.9218,159.4359)"
       id="g248"><path
         id="path250"
         style="fill:#000000;fill-opacity:1;fill-rule:nonzero;stroke:none"
         d="M 0,0 H 3.5 Z" /></g><g
       transform="translate(29.4219,159.436)"
       id="g252"><path
         id="path254"
         style="fill:none;stroke:#000000;stroke-width:0.80000001;stroke-linecap:butt;stroke-linejoin:round;stroke-miterlimit:10;stroke-dasharray:none;stroke-opacity:1"
         d="M 0,0 H -3.5" /></g><g
       transform="translate(46.3618,133.1582)"
       id="g256"><path
         id="path258"
         style="fill:none;stroke:#000000;stroke-width:1;stroke-linecap:butt;stroke-linejoin:round;stroke-miterlimit:10;stroke-dasharray:none;stroke-opacity:1"
         d="M 0,0 V 12.33" /></g><g
       transform="translate(87.251,132.7754)"
       id="g260"><path
         id="path262"
         style="fill:none;stroke:#000000;stroke-width:1;stroke-linecap:butt;stroke-linejoin:round;stroke-miterlimit:10;stroke-dasharray:none;stroke-opacity:1"
         d="M 0,0 V 9.108" /></g><g
       transform="translate(128.1401,131.5073)"
       id="g264"><path
         id="path266"
         style="fill:none;stroke:#000000;stroke-width:1;stroke-linecap:butt;stroke-linejoin:round;stroke-miterlimit:10;stroke-dasharray:none;stroke-opacity:1"
         d="M 0,0 V 9.833" /></g><g
       transform="translate(169.0298,128.9258)"
       id="g268"><path
         id="path270"
         style="fill:none;stroke:#000000;stroke-width:1;stroke-linecap:butt;stroke-linejoin:round;stroke-miterlimit:10;stroke-dasharray:none;stroke-opacity:1"
         d="M 0,0 V 10.647" /></g><g
       transform="translate(209.9185,121.1919)"
       id="g272"><path
         id="path274"
         style="fill:none;stroke:#000000;stroke-width:1;stroke-linecap:butt;stroke-linejoin:round;stroke-miterlimit:10;stroke-dasharray:none;stroke-opacity:1"
         d="M 0,0 V 10.531" /></g><g
       transform="translate(60.9653,133.8213)"
       id="g276"><path
         id="path278"
         style="fill:none;stroke:#000000;stroke-width:1;stroke-linecap:butt;stroke-linejoin:round;stroke-miterlimit:10;stroke-dasharray:none;stroke-opacity:1"
         d="M 0,0 V 15.895" /></g><g
       transform="translate(101.854,142.2373)"
       id="g280"><path
         id="path282"
         style="fill:none;stroke:#000000;stroke-width:1;stroke-linecap:butt;stroke-linejoin:round;stroke-miterlimit:10;stroke-dasharray:none;stroke-opacity:1"
         d="M 0,0 V 10.842" /></g><g
       transform="translate(142.7437,133.1411)"
       id="g284"><path
         id="path286"
         style="fill:none;stroke:#000000;stroke-width:1;stroke-linecap:butt;stroke-linejoin:round;stroke-miterlimit:10;stroke-dasharray:none;stroke-opacity:1"
         d="M 0,0 V 11.82" /></g><g
       transform="translate(183.6333,135.4868)"
       id="g288"><path
         id="path290"
         style="fill:none;stroke:#000000;stroke-width:1;stroke-linecap:butt;stroke-linejoin:round;stroke-miterlimit:10;stroke-dasharray:none;stroke-opacity:1"
         d="M 0,0 V 14.376" /></g><g
       transform="translate(224.5225,125.48)"
       id="g292"><path
         id="path294"
         style="fill:none;stroke:#000000;stroke-width:1;stroke-linecap:butt;stroke-linejoin:round;stroke-miterlimit:10;stroke-dasharray:none;stroke-opacity:1"
         d="M 0,0 V 10.834" /></g><g
       id="g296"><g
         clip-path="url(#clipPath302)"
         id="g298"><g
           transform="translate(29.4219,110.5122)"
           id="g304"><path
             id="path306"
             style="fill:none;stroke:#000000;stroke-width:1;stroke-linecap:butt;stroke-linejoin:round;stroke-miterlimit:10;stroke-dasharray:3.7, 1.6;stroke-dashoffset:0;stroke-opacity:1"
             d="M 0,0 H 210.312" /></g></g></g><g
       transform="translate(29.4219,28.9717)"
       id="g308"><path
         id="path310"
         style="fill:none;stroke:#000000;stroke-width:0.80000001;stroke-linecap:square;stroke-linejoin:miter;stroke-miterlimit:10;stroke-dasharray:none;stroke-opacity:1"
         d="M 0,0 -0.001,137.249" /></g><g
       transform="translate(29.4219,28.9717)"
       id="g312"><path
         id="path314"
         style="fill:none;stroke:#000000;stroke-width:0.80000001;stroke-linecap:square;stroke-linejoin:miter;stroke-miterlimit:10;stroke-dasharray:none;stroke-opacity:1"
         d="M 0,0 H 212.041" /></g><text
       id="text336"
       style="font-variant:normal;font-weight:normal;font-stretch:condensed;font-size:8px;font-family:'DejaVu Sans Condensed';-inkscape-font-specification:DejaVuSansCondensed;writing-mode:lr-tb;fill:#000000;fill-opacity:1;fill-rule:nonzero;stroke:none"
       transform="matrix(0,1,1,0,49.1191,35.2314)"><tspan
         id="tspan316"
         y="0"
         x="0 4.5760002 6.8639998 11.44 16.016001 22.048 26.624001 28.912001 33.487999">0.68±0.04</tspan><tspan
         id="tspan318"
         y="40.888"
         x="0 4.5760002 6.8639998 11.44 16.016001 22.048 26.624001 28.912001 33.487999">0.66±0.05</tspan><tspan
         id="tspan320"
         y="81.776001"
         x="0 4.5760002 6.8639998 11.44 16.016001 22.048 26.624001 28.912001 33.487999">0.66±0.03</tspan><tspan
         id="tspan322"
         y="122.664"
         x="0 4.5760002 6.8639998 11.44 16.016001 22.048 26.624001 28.912001 33.487999">0.65±0.03</tspan><tspan
         id="tspan324"
         y="163.552"
         x="0 4.5760002 6.8639998 11.44 16.016001 22.048 26.624001 28.912001 33.487999">0.60±0.03</tspan><tspan
         id="tspan326"
         y="14.6"
         x="0 4.5760002 6.8639998 11.44 16.016001 22.048 26.624001 28.912001 33.487999">0.69±0.04</tspan><tspan
         id="tspan328"
         y="55.487999"
         x="0 4.5760002 6.8639998 11.44 16.016001 22.048 26.624001 28.912001 33.487999">0.73±0.05</tspan><tspan
         id="tspan330"
         y="96.375999"
         x="0 4.5760002 6.8639998 11.44 16.016001 22.048 26.624001 28.912001 33.487999">0.68±0.03</tspan><tspan
         id="tspan332"
         y="137.26401"
         x="0 4.5760002 6.8639998 11.44 16.016001 22.048 26.624001 28.912001 33.487999">0.70±0.03</tspan><tspan
         id="tspan334"
         y="178.15199"
         x="0 4.5760002 6.8639998 11.44 16.016001 22.048 26.624001 28.912001 33.487999">0.62±0.03</tspan></text>
<g
       id="g338"><g
         clip-path="url(#clipPath344)"
         id="g340"><text
           id="text348"
           style="font-variant:normal;font-weight:normal;font-stretch:condensed;font-size:7px;font-family:'DejaVu Sans Condensed';-inkscape-font-specification:DejaVuSansCondensed;writing-mode:lr-tb;fill:#000000;fill-opacity:1;fill-rule:nonzero;stroke:none"
           transform="matrix(1,0,0,-1,232.4102,112.3159)"><tspan
             id="tspan346"
             y="0"
             x="0 4.3959999 8.3859997 12.2479 16.2379 19.7029">Chance</tspan></text>
</g></g><text
       id="text354"
       style="font-variant:normal;font-weight:normal;font-stretch:condensed;font-size:7px;font-family:'DejaVu Sans Condensed';-inkscape-font-specification:DejaVuSansCondensed;writing-mode:lr-tb;fill:#000000;fill-opacity:1;fill-rule:nonzero;stroke:none"
       transform="matrix(1,0,0,-1,229.8501,171.9111)"><tspan
         id="tspan350"
         y="0"
         x="0 5.4320002 8.2166004 12.2066 14.7966">MTurk</tspan><tspan
         id="tspan352"
         y="10.003"
         x="0 3.9760001 7.6999998 11.697 15.575 18.165001 20.6318">Experts</tspan></text>
<path
       id="path356"
       style="fill:#52769d;fill-opacity:1;fill-rule:nonzero;stroke:none"
       d="m 206.587,172.052 h -4.961 v 4.96 h 4.961 z" /><path
       id="path358"
       style="fill:#eea970;fill-opacity:1;fill-rule:nonzero;stroke:none"
       d="m 211.547,172.052 h -4.96 v 4.96 h 4.96 z" /><path
       id="path360"
       style="fill:#44863f;fill-opacity:1;fill-rule:nonzero;stroke:none"
       d="m 216.508,172.052 h -4.96 v 4.96 h 4.96 z" /><path
       id="path362"
       style="fill:#6e539f;fill-opacity:1;fill-rule:nonzero;stroke:none"
       d="m 221.469,172.052 h -4.961 v 4.96 h 4.961 z" /><path
       id="path364"
       style="fill:#999999;fill-opacity:1;fill-rule:nonzero;stroke:none"
       d="m 226.43,172.052 h -4.961 v 4.96 h 4.961 z" /><g
       id="g366"><g
         clip-path="url(#clipPath372)"
         id="g368"><g
           id="g374"><g
             id="g376" /><g
             id="g394"><g
               style="opacity:0.60000598"
               id="g392"
               clip-path="url(#clipPath380)"><path
                 id="path382"
                 style="fill:#52769d;fill-opacity:1;fill-rule:nonzero;stroke:none"
                 d="m 206.587,162.052 h -4.961 v 4.96 h 4.961 z" /><path
                 id="path384"
                 style="fill:#eea970;fill-opacity:1;fill-rule:nonzero;stroke:none"
                 d="m 211.547,162.052 h -4.96 v 4.96 h 4.96 z" /><path
                 id="path386"
                 style="fill:#44863f;fill-opacity:1;fill-rule:nonzero;stroke:none"
                 d="m 216.508,162.052 h -4.96 v 4.96 h 4.96 z" /><path
                 id="path388"
                 style="fill:#6e539f;fill-opacity:1;fill-rule:nonzero;stroke:none"
                 d="m 221.469,162.052 h -4.961 v 4.96 h 4.961 z" /><path
                 id="path390"
                 style="fill:#999999;fill-opacity:1;fill-rule:nonzero;stroke:none"
                 d="m 226.43,162.052 h -4.961 v 4.96 h 4.961 z" /></g></g></g></g></g></g></svg>